# xmcd CD database file
#
# Track frame offsets:
#	150
#	31608
#	69539
#	83861
#	101495
#	139635
#	159943
#	187852
#	203744
#	234743
#
# Disc length: 3458 seconds
#
# Revision: 0
# Processed by: cddbd v1.5.2PL0 Copyright (c) Steve Scherf et al.
# Submitted via: CDex 1.51
#
DISCID=740d800a
DTITLE=Michael Lucarelli - Celestial Harmony
DYEAR=1900
DGENRE=New Age
TTITLE0=Whisper to the Wind
TTITLE1=Evolution of the Soul
TTITLE2=Ellegy
TTITLE3=Dancing from the Heart
TTITLE4=Tacit Epiphany
TTITLE5=Reflections of Time
TTITLE6=Anazazi Cathedral
TTITLE7=Mortal Coil
TTITLE8=Dreaming of the Sea
TTITLE9=Savasana
EXTD=
EXTT0=
EXTT1=
EXTT2=
EXTT3=
EXTT4=
EXTT5=
EXTT6=
EXTT7=
EXTT8=
EXTT9=
PLAYORDER=
